Run_50002
nRows=4
nColumns=164

# SIMM Motion File Header:
name Run_50002
datacolumns 164
datarows 4
otherdata 1
range 1.27000000 1.30000000
endheader
time	pelvis_tilt	pelvis_list	pelvis_rotation	pelvis_tx	pelvis_ty	pelvis_tz	hip_flexion_r	hip_adduction_r	hip_rotation_r	knee_angle_r	ankle_angle_r	hip_flexion_l	hip_adduction_l	hip_rotation_l	knee_angle_l	ankle_angle_l	lumbar_extension	lumbar_bending	lumbar_rotation	arm_flex_r	arm_add_r	arm_rot_r	elbow_flex_r	pro_sup_r	arm_flex_l	arm_add_l	arm_rot_l	elbow_flex_l	pro_sup_l	subtalar_angle_r	mtp_angle_r	subtalar_angle_l	mtp_angle_l	wrist_flex_r	wrist_dev_r	wrist_flex_l	wrist_dev_l	LASI_tx	LASI_ty	LASI_tz	RASI_tx	RASI_ty	RASI_tz	LPSI_tx	LPSI_ty	LPSI_tz	RPSI_tx	RPSI_ty	RPSI_tz	RTH1_tx	RTH1_ty	RTH1_tz	RTH2_tx	RTH2_ty	RTH2_tz	RTH3_tx	RTH3_ty	RTH3_tz	LTH1_tx	LTH1_ty	LTH1_tz	LTH2_tx	LTH2_ty	LTH2_tz	LTH3_tx	LTH3_ty	LTH3_tz	RTB1_tx	RTB1_ty	RTB1_tz	RTB2_tx	RTB2_ty	RTB2_tz	RTB3_tx	RTB3_ty	RTB3_tz	LTB1_tx	LTB1_ty	LTB1_tz	LTB2_tx	LTB2_ty	LTB2_tz	LTB3_tx	LTB3_ty	LTB3_tz	RCAL_tx	RCAL_ty	RCAL_tz	RTOE_tx	RTOE_ty	RTOE_tz	RMT5_tx	RMT5_ty	RMT5_tz	LCAL_tx	LCAL_ty	LCAL_tz	LTOE_tx	LTOE_ty	LTOE_tz	LMT5_tx	LMT5_ty	LMT5_tz	LACR_tx	LACR_ty	LACR_tz	RACR_tx	RACR_ty	RACR_tz	CLAV_tx	CLAV_ty	CLAV_tz	C7_tx	C7_ty	C7_tz	RUA1_tx	RUA1_ty	RUA1_tz	RUA2_tx	RUA2_ty	RUA2_tz	RUA3_tx	RUA3_ty	RUA3_tz	RLEL_tx	RLEL_ty	RLEL_tz	RMEL_tx	RMEL_ty	RMEL_tz	LUA1_tx	LUA1_ty	LUA1_tz	LUA2_tx	LUA2_ty	LUA2_tz	LUA3_tx	LUA3_ty	LUA3_tz	LLEL_tx	LLEL_ty	LLEL_tz	LMEL_tx	LMEL_ty	LMEL_tz	RFAsuperior_tx	RFAsuperior_ty	RFAsuperior_tz	RFAradius_tx	RFAradius_ty	RFAradius_tz	RFAulna_tx	RFAulna_ty	RFAulna_tz	LFAsuperior_tx	LFAsuperior_ty	LFAsuperior_tz	LFAradius_tx	LFAradius_ty	LFAradius_tz	LFAulna_tx	LFAulna_ty	LFAulna_tz
      1.27000000	      1.70565552	     -2.48762559	     -0.58354653	      0.81093523	      0.96932544	     -0.32048405	     28.41195924	      8.08800155	     -1.13556607	    -20.07797591	      0.88820976	    -14.98147069	      0.19768832	     -0.24713230	    -78.47167686	    -30.22482417	    -17.04819229	     -0.79165946	    -14.31511902	    -38.35987399	    -15.57984682	    -17.20810537	     95.48244644	     70.43513885	      0.36316198	    -25.18865116	      3.08757358	    105.55228049	     97.78854908	      0.00000000	      0.00000000	      0.00000000	      0.00000000	      0.00000000	      0.00000000	      0.00000000	      0.00000000	      0.82101395	      0.98384497	     -0.45850586	      0.81003598	      0.99822847	     -0.19875782	      0.65119049	      1.01273938	     -0.37758921	      0.64294019	      1.00633975	     -0.27462718	      0.76541297	      0.79786873	     -0.14599504	      0.89054111	      0.73365526	     -0.15966779	      0.88280201	      0.60302833	     -0.19868913	      0.70846638	      0.79228438	     -0.49839135	      0.73241440	      0.65021505	     -0.47438304	      0.64457405	      0.55754678	     -0.46335773	      1.02022206	      0.40259503	     -0.28237395	      1.00508616	      0.33654652	     -0.22275712	      1.03684037	      0.23532759	     -0.29517419	      0.48740561	      0.41565147	     -0.39942313	      0.40624495	      0.46111636	     -0.46659496	      0.33345770	      0.42730278	     -0.40161645	      0.95855124	      0.09030939	     -0.31675907	      1.17881371	      0.11280756	     -0.32271124	      1.13293232	      0.07931364	     -0.23515741	      0.24246074	      0.54373384	     -0.40307421	      0.11684949	      0.35378062	     -0.36976270	      0.10709689	      0.41020188	     -0.45706211	      0.86072204	      1.43541238	     -0.50026333	      0.78497457	      1.47350138	     -0.17928678	      0.85936393	      1.39571174	     -0.29510522	      0.76057643	      1.48499155	     -0.35654579	      0.69086359	      1.43426579	     -0.11863597	      0.62130040	      1.38842471	     -0.17586958	      0.60224259	      1.34495837	     -0.11649628	      0.51711574	      1.27291059	     -0.10105128	      0.53457453	      1.25037644	     -0.17880159	      0.84466449	      1.34596142	     -0.58463759	      0.78500302	      1.26688874	     -0.57735022	      0.81710590	      1.20461460	     -0.62387026	      0.83609186	      1.11999783	     -0.64476418	      0.78329815	      1.10735151	     -0.58159876	      0.58674441	      1.19839174	     -0.05772431	      0.70653848	      1.09525462	     -0.03949677	      0.64920318	      1.05101690	     -0.04430515	      0.93106043	      1.11452061	     -0.58636651	      1.02512659	      1.11657376	     -0.45494159	      1.04093718	      1.05355860	     -0.48727830
      1.28000000	      2.40255690	     -3.39294699	     -0.80430809	      0.80936220	      0.96336426	     -0.32070409	     27.88075709	      9.09156890	     -2.59435785	    -25.42755234	     -0.35434053	    -12.10845069	     -1.23455219	     -1.21083190	    -85.94812943	    -28.77388238	    -18.26404658	      0.27111767	    -12.82078580	    -36.51586249	    -16.59423431	    -16.96881330	     96.39427340	     70.12411004	     -0.41475254	    -24.20415238	      3.14339561	    102.92157733	     98.08292284	      0.00000000	      0.00000000	      0.00000000	      0.00000000	      0.00000000	      0.00000000	      0.00000000	      0.00000000	      0.82116242	      0.97736991	     -0.45928999	      0.80866516	      0.99295592	     -0.19785846	      0.64906948	      1.00240771	     -0.37854242	      0.64155975	      0.99837063	     -0.27619029	      0.76371446	      0.79234282	     -0.14924912	      0.88992583	      0.72997334	     -0.16112199	      0.87683978	      0.59666697	     -0.19991405	      0.71298099	      0.78222358	     -0.49835563	      0.74343547	      0.64156612	     -0.47686960	      0.66185293	      0.54532753	     -0.46544445	      1.00835198	      0.39137629	     -0.28308285	      0.98702885	      0.32628833	     -0.22682830	      1.01138940	      0.22233686	     -0.29736121	      0.51146504	      0.41160365	     -0.40183638	      0.43268251	      0.46012247	     -0.46853444	      0.35998753	      0.43309936	     -0.40156375	      0.91848870	      0.09333761	     -0.32134465	      1.14242827	      0.08425376	     -0.32591451	      1.09076713	      0.06248245	     -0.23615235	      0.27632163	      0.55432732	     -0.39826435	      0.13926682	      0.37074496	     -0.37720556	      0.13509223	      0.43212438	     -0.46166938	      0.86070640	      1.42776139	     -0.50100797	      0.78877381	      1.46570233	     -0.17836253	      0.86129614	      1.38846686	     -0.29590231	      0.76126280	      1.47857296	     -0.35504598	      0.69652025	      1.42421904	     -0.11494698	      0.62459290	      1.37769532	     -0.16896265	      0.60904978	      1.33281095	     -0.10896703	      0.52593302	      1.25953505	     -0.09183224	      0.54129026	      1.23758843	     -0.17018851	      0.84036331	      1.33762855	     -0.58515141	      0.77838084	      1.26017107	     -0.57660878	      0.80843069	      1.19726482	     -0.62341973	      0.82409921	      1.11257581	     -0.64445865	      0.77311003	      1.10190951	     -0.58079998	      0.59885517	      1.18727301	     -0.04973533	      0.72301266	      1.08865843	     -0.03581039	      0.66695921	      1.04268148	     -0.03835243	      0.92029967	      1.10094442	     -0.58901966	      1.01791969	      1.09324964	     -0.45968257	      1.02878538	      1.03078150	     -0.49381454
      1.29000000	      2.54313290	     -4.50877515	     -1.38590350	      0.80731603	      0.95622538	     -0.32040855	     27.98037740	     10.42322928	     -3.57327078	    -31.31016949	      1.79397814	     -8.49038566	     -2.88075498	     -2.23036051	    -93.02384984	    -25.81231688	    -18.83454222	      1.45295014	    -10.75873201	    -34.50308797	    -17.83342548	    -16.75382132	     97.18444800	     69.68012381	     -1.22224870	    -23.09409107	      3.15000889	     99.67788983	     98.67997840	      0.00000000	      0.00000000	      0.00000000	      0.00000000	      0.00000000	      0.00000000	      0.00000000	      0.00000000	      0.82123179	      0.96986232	     -0.45948845	      0.80702809	      0.98707034	     -0.19644304	      0.64698870	      0.99181673	     -0.38092940	      0.64002919	      0.99117605	     -0.27852047	      0.76032300	      0.78728519	     -0.15105529	      0.88604340	      0.72375288	     -0.16129772	      0.87006477	      0.59005108	     -0.20150079	      0.71766844	      0.77125444	     -0.49738945	      0.75553548	      0.63306149	     -0.47982134	      0.68096465	      0.53239340	     -0.46722665	      0.99510701	      0.38184849	     -0.28353927	      0.96659212	      0.31806520	     -0.23066416	      0.98199135	      0.21275526	     -0.29857043	      0.53869666	      0.40621672	     -0.40440018	      0.46224314	      0.45854570	     -0.47040202	      0.38980372	      0.43706358	     -0.40165894	      0.87414907	      0.09613593	     -0.32446879	      1.09961267	      0.06733435	     -0.32780968	      1.04440529	      0.05471452	     -0.23682764	      0.30906334	      0.56169792	     -0.39361446	      0.16847924	      0.38083352	     -0.38415581	      0.16805602	      0.44578950	     -0.46623977	      0.85995345	      1.42056488	     -0.50217843	      0.79215035	      1.45855340	     -0.17746346	      0.86277117	      1.38119206	     -0.29702045	      0.76151165	      1.47207381	     -0.35362515	      0.70265530	      1.41340844	     -0.11105079	      0.62830195	      1.36587095	     -0.16095345	      0.61703197	      1.31955575	     -0.10034918	      0.53625450	      1.24507689	     -0.08156865	      0.54969176	      1.22351775	     -0.16050741	      0.83499515	      1.32960983	     -0.58583545	      0.77070879	      1.25341051	     -0.57572746	      0.79889081	      1.19022058	     -0.62282634	      0.81088893	      1.10550869	     -0.64402247	      0.76199239	      1.09657775	     -0.57989341	      0.61262993	      1.17538600	     -0.04107939	      0.74115288	      1.08193621	     -0.03187244	      0.68641847	      1.03411157	     -0.03202038	      0.90828216	      1.08689353	     -0.59260198	      1.00927936	      1.06794459	     -0.46577948	      1.01463996	      1.00663434	     -0.50226072
      1.30000000	      2.17585042	     -5.92616284	     -2.36115645	      0.80498882	      0.94890963	     -0.31919351	     28.51251834	     12.30604745	     -3.84646208	    -37.32293303	      6.41148260	     -4.15638972	     -4.97573177	     -3.27248655	    -99.54613462	    -22.41329183	    -18.83369210	      2.81080548	     -8.10242317	    -32.26258110	    -19.24642679	    -16.45173043	     97.70134208	     69.32857448	     -2.03812364	    -21.89247795	      3.14858394	     95.73295584	     99.59688559	      0.00000000	      0.00000000	      0.00000000	      0.00000000	      0.00000000	      0.00000000	      0.00000000	      0.00000000	      0.82102981	      0.96125135	     -0.45869167	      0.80489488	      0.98167479	     -0.19416590	      0.64529330	      0.98239575	     -0.38458889	      0.63828655	      0.98489928	     -0.28111806	      0.75553489	      0.78486483	     -0.15087141	      0.87925232	      0.71691348	     -0.16014285	      0.86410106	      0.58539005	     -0.20274582	      0.72384341	      0.76040935	     -0.49572972	      0.76935389	      0.62587528	     -0.48305142	      0.70241503	      0.52051053	     -0.46837217	      0.97936257	      0.37549626	     -0.28485591	      0.94427472	      0.31318685	     -0.23308379	      0.94952312	      0.20843601	     -0.29935397	      0.56897239	      0.40001980	     -0.40690063	      0.49496073	      0.45684905	     -0.47200931	      0.42229633	      0.43905595	     -0.40225760	      0.82747616	      0.09844836	     -0.32610945	      1.05288155	      0.06179424	     -0.32856320	      0.99715448	      0.05482939	     -0.23749089	      0.34212731	      0.56569134	     -0.39060385	      0.20258881	      0.38460361	     -0.38982024	      0.20407662	      0.45150436	     -0.47047334	      0.85822598	      1.41452095	     -0.50388883	      0.79498172	      1.45272729	     -0.17671578	      0.86378973	      1.37460147	     -0.29834086	      0.76152951	      1.46627154	     -0.35244230	      0.70934838	      1.40276895	     -0.10692972	      0.63295514	      1.35350494	     -0.15202270	      0.62682481	      1.30617252	     -0.09098331	      0.54862025	      1.23011957	     -0.07037665	      0.55995848	      1.20867780	     -0.14995171	      0.82878252	      1.32290157	     -0.58657516	      0.76235176	      1.24766301	     -0.57444119	      0.78881866	      1.18433483	     -0.62187476	      0.79697995	      1.09946458	     -0.64337145	      0.75007136	      1.09183691	     -0.57877322	      0.62874462	      1.16349590	     -0.03250773	      0.76090390	      1.07550020	     -0.02829502	      0.70757908	      1.02592873	     -0.02566705	      0.89487540	      1.07284304	     -0.59671459	      0.99872799	      1.04137346	     -0.47321530	      0.99823386	      0.98174942	     -0.51259190
